<?xml version="1.0" encoding="UTF-8"?>
<!-- Created with Inkscape (http://www.inkscape.org/) -->
<svg width="101.83mm" height="109.31mm" version="1.1" viewBox="0 0 101.83 109.31" xmlns="http://www.w3.org/2000/svg">
 <g transform="translate(-31.233 -20.243)">
  <path d="m38.318 45.252-0.0014 59.328c-0.73172 0.63742-6.9757 5.6836-7.0839 9.0728 8.1e-5 8.7843 17.609 15.905 39.33 15.905 21.721 7e-5 39.33-7.1211 39.33-15.905-4e-3 -2.0252-0.96502-4.0313-1.6206-4.675 0.0967 0.29051-0.66357-59.988-0.66357-59.988-1.372 0.79497-2.9208 1.5376-4.6271 2.2185l-6e-3 53.441c-10.199-4.4989-22.796-6.8278-32.413-6.9017-9.4903 0.64462-19.584 1.4717-27.617 4.5854v-54.862c-1.7064-0.68092-3.2552-1.4235-4.6272-2.2185z" style="fill:#333;font-variation-settings:'wdth' 85.7, 'wght' 575;paint-order:stroke fill markers;stroke-width:4.0836"/>
  <path d="m109.89 36.149a39.33 15.906 0 0 1-39.33 15.906 39.33 15.906 0 0 1-39.33-15.906 39.33 15.906 0 0 1 39.33-15.906 39.33 15.906 0 0 1 39.33 15.906z" style="font-variation-settings:'wdth' 85.7, 'wght' 575;paint-order:stroke fill markers;stroke-width:4.0836"/>
  <path d="m109.85 36.58a39.33 15.906 0 0 1-1.0578 3.2623c-0.10034 0.17154-0.20905 0.34242-0.3235 0.51263a39.33 15.906 0 0 1-0.33744 0.47439c-0.173 0.22901-0.35785 0.45665-0.55656 0.68265v-0.0062a39.33 15.906 0 0 1-10.411 6.3443v8.8563s4.8993 4.94e-4 10.402 1.8097v49.561c-5.4894 6.0017-10.373 9.8785-10.373 9.8785v7.4001c4.6634-1.7336 8.2212-3.8972 10.373-6.3061v3e-3c0.0131-0.0148 0.0253-0.0296 0.0382-0.0444v-5.2e-4c1.4827-1.6977 2.2806-3.4848 2.2846-5.2855l-2e-3 -3.8339c6.2459-4.938 23.176-19.989 23.176-38.061-1e-5 -15.563-16.954-20.019-23.205-21.134zm0.0114 22.791c6.3872 2.677 12.79 8.0433 12.79 18.803 0 9.8057-6.3899 19.77-12.767 27.274z" style="fill:#fff;font-variation-settings:'wdth' 85.7, 'wght' 575;paint-order:stroke fill markers;stroke-width:4.0846"/>
  <path d="m31.231 36.157v77.516a39.33 15.908 0 0 0 7.0854 9.0857v-77.511a39.33 15.908 0 0 1-7.0854-9.0909z" style="fill:#fff;font-variation-settings:'wdth' 85.7, 'wght' 575;paint-order:stroke fill markers;stroke-width:3.7242"/>
 </g>
</svg>
